<svg xmlns="http://www.w3.org/2000/svg" viewBox="208 344 608 80" xml:space="preserve">
<path style="fill: rgb(255,255,255); fill-rule: nonzero;" d="M 208.93 344.8 L 208.93 349.9504 L 259.666 349.9504 L 259.666 344.8 Z M 283.961 344.8 L 283.961 423.198 L 334.809 423.198 L 334.809 418.0476 L 289.672 418.0476 L 289.672 344.7996 Z M 349.586 344.8 L 349.586 423.198 L 355.2969 423.198 L 355.2969 344.8 Z M 369.4 344.8 L 369.4 349.9504 L 397.625 349.9504 L 397.625 423.1984 L 403.3359 423.1984 L 403.3359 349.9504 L 431.5609 349.9504 L 431.5609 344.8 Z M 445.617 344.8 L 445.617 349.9504 L 496.353 349.9504 L 496.353 344.8 Z M 520.648 344.8 L 520.648 349.9504 L 548.759 349.9504 C 557.047 349.9504 563.431 351.856 567.911 355.552 C 572.279 359.248 574.5184 364.5117 574.5184 371.232 C 574.5184 378.064 572.279 383.328 567.911 386.912 C 563.431 390.608 557.047 392.4003 548.759 392.4003 L 520.648 392.4003 L 520.648 423.1993 L 526.3589 423.1993 L 526.3589 397.5533 L 548.7589 397.5533 C 558.6149 397.5533 566.3429 395.312 571.9429 390.608 C 577.5429 385.904 580.3433 379.521 580.3433 371.233 C 580.3433 363.057 577.5429 356.56 571.9429 351.856 C 566.3429 347.152 558.6149 344.8013 548.7589 344.8013 Z M 599.617 344.8 L 599.617 349.9504 L 627.728 349.9504 C 636.016 349.9504 642.4 351.856 646.88 355.552 C 651.248 359.248 653.4874 364.5117 653.4874 371.232 C 653.4874 378.064 651.248 383.327 646.88 387.023 C 642.4 390.719 636.016 392.5113 627.728 392.5113 L 599.617 392.5113 L 599.617 423.1993 L 605.3279 423.1993 L 605.3279 397.5533 L 627.7279 397.5533 C 629.9679 397.5533 632.5451 397.4407 635.3451 396.9928 L 654.0481 423.1997 L 660.5442 423.1997 L 640.9442 395.7607 C 646.7682 394.0807 651.3592 391.169 654.4952 386.913 C 657.6312 382.6571 659.3116 377.5054 659.3116 371.233 C 659.3116 363.0571 656.5112 356.56 650.9112 351.856 C 645.3112 347.152 637.5832 344.8013 627.7272 344.8013 Z M 680.336 344.8 L 680.336 349.9504 L 731.072 349.9504 L 731.072 344.8 Z M 755.367 344.8 L 755.367 349.9504 L 783.478 349.9504 C 791.766 349.9504 798.15 351.856 802.63 355.552 C 806.998 359.248 809.2374 364.5117 809.2374 371.232 C 809.2374 378.064 806.998 383.328 802.63 386.912 C 798.15 390.608 791.766 392.4003 783.478 392.4003 L 755.367 392.4003 L 755.367 423.1993 L 761.0779 423.1993 L 761.0779 397.5533 L 783.4779 397.5533 C 793.3339 397.5533 801.0619 395.312 806.6619 390.608 C 812.2619 385.904 815.0623 379.521 815.0623 371.233 C 815.0623 363.057 812.2619 356.56 806.6619 351.856 C 801.0619 347.152 793.3339 344.8013 783.4779 344.8013 Z M 208.927 380.862 L 208.927 385.903 L 259.663 385.903 L 259.663 380.862 Z M 445.617 380.862 L 445.617 385.903 L 496.353 385.903 L 496.353 380.862 Z M 680.337 380.862 L 680.337 385.903 L 731.073 385.903 L 731.073 380.862 Z M 208.927 418.048 L 208.927 423.1984 L 259.663 423.1984 L 259.663 418.048 Z M 445.617 418.048 L 445.617 423.1984 L 496.353 423.1984 L 496.353 418.048 Z M 680.337 418.048 L 680.337 423.1984 L 731.073 423.1984 L 731.073 418.048 Z"/>
</svg>
